<?xml version="1.0" encoding="utf-8"?>
<!-- Generator: Adobe Illustrator 27.2.0, SVG Export Plug-In . SVG Version: 6.00 Build 0)  -->
<svg version="1.1" id="Layer_1" xmlns="http://www.w3.org/2000/svg" xmlns:xlink="http://www.w3.org/1999/xlink" x="0px" y="0px"
	 viewBox="0 0 269.6 269.6" style="enable-background:new 0 0 269.6 269.6;" xml:space="preserve">
<style type="text/css">
	.st0{fill:#FFFFFF;}
</style>
<g>
	<path class="st0" d="M134.8,265.4c-32.5,0-65.2-0.1-97.7,0.1c-4.1,0-7.4-0.9-10-4c-0.2-0.3-0.6-0.6-0.9-0.8
		c-5.8-4.2-7.4-9.5-6.4-16.9c5.5-38.4,10.4-76.9,15.4-115.3c2.3-16.8,4.4-33.5,6.6-50.3c1-8,2.5-9.3,10.3-9.3
		c9.2,0,18.5-0.1,27.7,0.1c2.6,0,3.3-0.7,3.3-3.2c-0.1-7.2-0.4-14.3,1.4-21.3c6.2-25.1,30.2-42.3,54.9-39.4
		c27.1,3,46.7,24.2,47.1,50.5c0,3.1,0.2,6.3,0,9.3c-0.2,3,0.7,4,3.8,3.9c9.2-0.2,18.5-0.1,27.7-0.1c7,0,8.7,1.3,9.5,8
		c3.8,28.4,7.5,56.8,11.3,85.2c3.7,28.6,7.6,57.3,11.4,85.9c0.5,3.5,0,6.4-2.7,8.9c-0.4,0.4-0.8,0.8-1.1,1.2c-4.6,5.8-10.3,8-18,7.8
		C197.3,265.1,166.1,265.4,134.8,265.4z M134.7,252.9c31.8,0,63.6,0,95.4,0c5.5,0,7.9-2.6,7.2-8c-1.3-10.2-2.7-20.4-4-30.6
		c-5.7-43.1-11.4-86.2-17-129.3c-0.4-3.1-1.6-4-4.6-3.9c-51,0.1-102.2,0.1-153.2,0c-3.6,0-4.4,1.3-4.9,4.6
		c-2.8,22.5-5.8,44.9-8.8,67.4c-4,30.6-8.2,61.2-12.2,91.7c-0.8,5.7,1.6,8.2,7.3,8.2C71.5,252.9,103,252.9,134.7,252.9z M134.8,68.5
		c12.1,0,24.2-0.1,36.3,0c2.4,0,3.2-0.5,3.1-3c-0.2-3.6,0-7.3-0.1-10.9c-0.7-18.4-14.4-34.2-32.1-37.1c-19.2-3-37,7.1-43.7,24.9
		c-2.8,7.4-2.4,15-2.7,22.7c-0.1,2.9,0.9,3.4,3.5,3.3C111.1,68.4,122.9,68.5,134.8,68.5z"/>
</g>
</svg>
