<?xml version="1.0" encoding="utf-8"?>
<!-- Generator: Adobe Illustrator 27.2.0, SVG Export Plug-In . SVG Version: 6.00 Build 0)  -->
<svg version="1.1" id="Layer_1" xmlns="http://www.w3.org/2000/svg" xmlns:xlink="http://www.w3.org/1999/xlink" x="0px" y="0px"
	 viewBox="0 0 137 124" style="enable-background:new 0 0 137 124;" xml:space="preserve">
<style type="text/css">
	.st0{fill:#E51E26;}
</style>
<g>
	<path class="st0" d="M121.4,54.8l-0.2,0c-0.6,0-1.4,0-2,0.6c-0.6,0.6-0.6,1.4-0.6,2.1c0,15.5,0,31,0,46.4l0,9.8
		c0,2.7-0.7,3.4-3.4,3.4l-91.3,0c-2.8,0-3.5-0.7-3.5-3.5V22.3c0-2.7,0.7-3.4,3.4-3.4l53.5,0c3.7,0,4.1-0.4,4.2-3.9l0-0.2
		c0-0.7,0-1.5-0.6-2.1c-0.6-0.6-1.4-0.7-2.1-0.7C64.5,12,50,12,36,12l-12.3,0c-6.3,0-10.1,3.8-10.1,10.2c0,8.3,0,16.7,0,25
		c0,21.8,0,44.3-0.1,66.5c0,3,1,5.6,2.9,7.5c1.8,1.8,4.4,2.8,7.3,2.8c0,0,0.1,0,0.1,0c10.9-0.1,22-0.1,32.7-0.1c4.3,0,8.6,0,12.9,0
		l45.7,0l0.3,0c1,0,2,0,3-0.3c4.3-1.1,7-4.8,7-9.7c0-13.4,0-26.8,0-40.2l0-14.6C125.5,55.4,125.1,54.9,121.4,54.8z"/>
	<path class="st0" d="M134.6,10.8c-1.5-1.5-2.9-2.9-4.4-4.4l-3.7-3.7c-3.7-3.7-8.1-3.7-11.8,0l-18,18C83,34.5,69.3,48.3,55.5,62.1
		c-0.7,0.7-1.2,1.5-1.6,2.4c-2.1,5.3-4.3,10.5-6.4,15.8l-4.2,10.3c0,0.1-0.1,0.1-0.1,0.2c-0.2,0.5-0.7,1.5,0.3,2.5
		c0.5,0.6,1,0.7,1.5,0.7c0.5,0,0.9-0.2,1.2-0.3l10.1-4c5.4-2.2,10.9-4.3,16.3-6.5c0.9-0.4,1.7-0.9,2.4-1.6c5.3-5.3,10.7-10.7,16-16
		l23.2-23.2c6.7-6.7,13.5-13.5,20.2-20.2c1.8-1.8,2.7-3.7,2.7-6v0C136.9,14.2,136.1,12.4,134.6,10.8z M65.9,78.4
		c-3.3,1.3-6.5,2.6-9.9,4l-2.4,0.9l5-12.2l2.3,2.3C62.5,75,64.2,76.7,65.9,78.4z M62.2,65C62.2,65,62.2,65,62.2,65l21.4-21.4
		c9.3-9.3,18.6-18.6,27.9-27.9c0.2-0.2,0.3-0.3,0.4-0.3c0.1,0,0.2,0.1,0.3,0.3c3.3,3.4,6.5,6.6,9.3,9.3c0.1,0.1,0.1,0.1,0.1,0.2
		c0,0-0.1,0.1-0.1,0.2c-13.1,13.1-26.2,26.2-39.3,39.3L72.1,74.7c0,0-0.1,0.1-0.1,0.1c-0.9-0.9-1.8-1.8-2.7-2.7
		C67,69.8,64.6,67.4,62.2,65z M116.6,10.6c0.7-0.7,1.4-1.4,2.1-2.1c0.5-0.5,1-1,1.5-1.4c0.2-0.2,0.3-0.2,0.4-0.2l0.1,0l0.1,0
		c0.2,0,0.4,0.1,0.8,0.5l1.7,1.7c2.2,2.1,4.3,4.3,6.4,6.5c0.7,0.7,0.7,0.9,0,1.6c-0.5,0.5-0.9,0.9-1.4,1.4c-0.6,0.6-1.2,1.2-1.8,1.8
		c-2.8-2.8-5.6-5.7-8.5-8.5L116.6,10.6z"/>
</g>
</svg>
