<?xml version="1.0" encoding="utf-8"?>
<!-- Generator: Adobe Illustrator 27.2.0, SVG Export Plug-In . SVG Version: 6.00 Build 0)  -->
<svg version="1.1" id="Layer_1" xmlns="http://www.w3.org/2000/svg" xmlns:xlink="http://www.w3.org/1999/xlink" x="0px" y="0px"
	 viewBox="0 0 135 135" style="enable-background:new 0 0 135 135;" xml:space="preserve">
<style type="text/css">
	.st0{fill:#F7F6F5;}
	.st1{fill:#4A4843;}
	.st2{fill:#FFFFFF;}
	.st3{fill-rule:evenodd;clip-rule:evenodd;fill:#FFFFFF;}
	.st4{fill-rule:evenodd;clip-rule:evenodd;fill:#4A4843;}
	.st5{fill:#FEFEFE;}
	.st6{fill-rule:evenodd;clip-rule:evenodd;}
	.st7{fill:url(#SVGID_1_);}
</style>
<g id="Background">
	<rect x="-1745.5" y="-504" class="st0" width="1200" height="1200"/>
</g>
<g id="Graphic_Elements">
	<g>
		<path d="M-1571.4-376.1c-3.1-0.9-5.5-2.2-7.5-3.7c-1-0.8-1.5-1.8-1.5-3.2c0-0.9,0.3-1.8,0.8-2.4c0.6-0.7,1.2-1,2-1
			s1.7,0.3,2.7,0.9c1.9,1.4,3.9,2.4,6,3s4.4,0.9,7,0.9c3.3,0,5.8-0.6,7.5-1.7s2.6-2.8,2.6-5c0-1.7-0.8-3-2.4-3.9s-4.3-1.8-8.1-2.6
			c-3.9-0.8-7.1-1.8-9.6-2.9s-4.3-2.5-5.6-4.3c-1.2-1.7-1.9-3.9-1.9-6.6c0-2.8,0.8-5.2,2.3-7.4c1.6-2.2,3.7-3.9,6.5-5.1
			s5.9-1.8,9.4-1.8c6.4,0,11.6,1.7,15.6,5.1c0.6,0.5,1,1,1.2,1.4c0.2,0.5,0.4,1.1,0.4,1.8c0,0.9-0.3,1.8-0.8,2.4c-0.6,0.7-1.2,1-2,1
			c-0.4,0-0.9-0.1-1.2-0.2c-0.4-0.1-0.9-0.4-1.5-0.7c-1.8-1.3-3.6-2.3-5.3-3c-1.7-0.6-3.8-1-6.3-1c-3,0-5.4,0.6-7.2,1.8
			c-1.8,1.2-2.6,2.9-2.6,5.1c0,1.8,0.8,3.2,2.3,4.2c1.6,1,4.2,1.9,8,2.7c4,0.9,7.2,1.9,9.7,3s4.4,2.5,5.7,4.2c1.3,1.7,2,3.8,2,6.4
			c0,2.8-0.8,5.2-2.3,7.3c-1.5,2.1-3.7,3.8-6.5,5s-6,1.8-9.6,1.8C-1565.1-374.7-1568.3-375.2-1571.4-376.1z"/>
		<path d="M-1516.2-377.7c-3.4-2-6-4.8-7.8-8.4c-1.8-3.7-2.7-7.9-2.7-12.8s0.9-9.2,2.7-12.8c1.8-3.6,4.4-6.4,7.8-8.4s7.4-2.9,12-2.9
			s8.6,1,11.9,2.9c3.4,2,6,4.8,7.8,8.4s2.7,7.9,2.7,12.8s-0.9,9.2-2.7,12.8c-1.8,3.7-4.4,6.5-7.8,8.4c-3.4,2-7.3,2.9-11.9,2.9
			C-1508.8-374.7-1512.8-375.7-1516.2-377.7z M-1494.1-386.1c2.4-3,3.6-7.3,3.6-12.8c0-5.6-1.2-9.8-3.6-12.8s-5.8-4.4-10.1-4.4
			c-4.4,0-7.8,1.5-10.2,4.4c-2.4,3-3.6,7.2-3.6,12.8c0,5.6,1.2,9.9,3.6,12.8c2.4,3,5.8,4.5,10.2,4.5
			C-1499.9-381.6-1496.5-383.1-1494.1-386.1z"/>
		<path d="M-1453.9-377.7c-3.4-2-6-4.8-7.9-8.4c-1.8-3.7-2.7-7.9-2.7-12.8s0.9-9.2,2.7-12.8c1.8-3.6,4.5-6.4,7.9-8.4
			s7.4-2.9,11.9-2.9c2.9,0,5.7,0.4,8.3,1.3c2.6,0.9,4.9,2.1,6.9,3.8c0.6,0.4,1,0.9,1.2,1.4s0.3,1.1,0.3,1.8c0,1-0.3,1.8-0.8,2.5
			s-1.2,1-1.9,1c-0.9,0-1.8-0.3-2.7-0.9c-1.9-1.4-3.7-2.4-5.4-3c-1.7-0.6-3.5-0.8-5.5-0.8c-4.6,0-8.2,1.5-10.5,4.3
			c-2.4,2.9-3.6,7.2-3.6,12.8c0,5.7,1.2,9.9,3.6,12.8s5.9,4.3,10.5,4.3c1.9,0,3.7-0.3,5.3-0.9c1.6-0.6,3.5-1.6,5.5-2.9
			c0.4-0.3,0.9-0.5,1.3-0.7s0.9-0.3,1.4-0.3c0.8,0,1.4,0.3,1.9,1s0.8,1.5,0.8,2.5c0,0.7-0.1,1.3-0.3,1.8c-0.2,0.5-0.6,1-1.2,1.4
			c-2,1.7-4.3,2.9-6.9,3.8s-5.4,1.3-8.3,1.3C-1446.5-374.7-1450.5-375.7-1453.9-377.7z"/>
		<path d="M-1406.5-376.1c-0.8-0.8-1.2-1.9-1.2-3.1v-39.3c0-1.3,0.4-2.3,1.2-3.1c0.8-0.8,1.8-1.2,3.1-1.2c1.3,0,2.4,0.4,3.2,1.2
			c0.8,0.8,1.2,1.8,1.2,3.1v39.3c0,1.3-0.4,2.3-1.2,3.1c-0.8,0.8-1.8,1.2-3.2,1.2C-1404.7-374.9-1405.7-375.3-1406.5-376.1z"/>
		<path d="M-1335.7-378.8c0,1-0.4,1.9-1.2,2.6c-0.8,0.7-1.8,1.1-2.8,1.1c-0.7,0-1.4-0.2-2-0.6s-1.1-1-1.5-1.8l-4-9h-23.6l-4,9
			c-0.4,0.8-0.8,1.4-1.5,1.8c-0.6,0.4-1.3,0.6-2.1,0.6c-1,0-2-0.4-2.8-1.1s-1.3-1.6-1.3-2.6c0-0.6,0.1-1.2,0.4-1.7l18.5-39.7
			c0.4-0.9,1-1.6,1.8-2c0.8-0.5,1.7-0.7,2.6-0.7s1.8,0.2,2.6,0.7c0.8,0.5,1.4,1.1,1.8,2l18.5,39.7
			C-1335.8-379.9-1335.7-379.3-1335.7-378.8z M-1367.8-393.1h17.7l-8.8-19.9L-1367.8-393.1z"/>
		<path d="M-1318.1-376.4c-0.7-0.7-1.1-1.7-1.1-2.9v-39.2c0-1.3,0.4-2.3,1.2-3.1c0.8-0.8,1.8-1.2,3.1-1.2c1.3,0,2.4,0.4,3.2,1.2
			c0.8,0.8,1.2,1.8,1.2,3.1v36.1h18.8c2.7,0,4,1.2,4,3.5c0,2.4-1.3,3.5-4,3.5h-23.4C-1316.3-375.3-1317.3-375.7-1318.1-376.4z"/>
		<path d="M-1198.9-421.7c0.8,0.8,1.1,1.8,1.1,3.1v39.6c0,1.2-0.4,2.2-1.1,2.9c-0.7,0.7-1.7,1.1-2.8,1.1c-1.2,0-2.1-0.4-2.7-1.1
			c-0.7-0.7-1-1.7-1-2.9v-27.6l-11.4,21.5c-0.5,1-1.1,1.7-1.7,2.2s-1.4,0.7-2.2,0.7c-0.8,0-1.6-0.2-2.2-0.7
			c-0.6-0.4-1.2-1.2-1.7-2.2l-11.4-21.2v27.2c0,1.2-0.3,2.2-1,2.9c-0.7,0.7-1.6,1.1-2.8,1.1c-1.2,0-2.1-0.4-2.7-1.1
			c-0.7-0.7-1-1.7-1-2.9v-39.6c0-1.3,0.4-2.3,1.1-3.1c0.7-0.8,1.7-1.2,3-1.2c1.7,0,3.1,1,4.1,2.9l14.9,28.3l14.8-28.3
			c1-1.9,2.3-2.9,3.9-2.9C-1200.7-422.9-1199.6-422.5-1198.9-421.7z"/>
		<path d="M-1176.4-376.4c-0.7-0.7-1.1-1.7-1.1-3v-39c0-1.3,0.4-2.3,1.1-3s1.8-1.1,3-1.1h24.2c1.3,0,2.3,0.3,3,0.9s1.1,1.4,1.1,2.5
			s-0.4,2-1.1,2.6s-1.7,0.9-3,0.9h-19.9v13h18.5c1.3,0,2.3,0.3,3,0.9s1.1,1.4,1.1,2.5s-0.4,1.9-1.1,2.5s-1.7,0.9-3,0.9h-18.5v13.8
			h19.9c1.3,0,2.3,0.3,3,0.9s1.1,1.5,1.1,2.6s-0.4,1.9-1.1,2.5s-1.7,0.9-3,0.9h-24.2C-1174.6-375.3-1175.6-375.7-1176.4-376.4z"/>
		<path d="M-1126.9-376.4c-0.7-0.7-1.1-1.7-1.1-3v-39c0-1.3,0.4-2.3,1.1-3s1.8-1.1,3-1.1h13.2c7.7,0,13.7,2.1,18,6.2
			s6.4,9.9,6.4,17.4s-2.1,13.3-6.4,17.4s-10.3,6.2-18,6.2h-13.2C-1125.2-375.3-1126.2-375.7-1126.9-376.4z M-1111.2-382.4
			c10.8,0,16.3-5.5,16.3-16.6c0-11-5.4-16.5-16.3-16.5h-8.2v33.1H-1111.2z"/>
		<path d="M-1066.4-376.1c-0.8-0.8-1.2-1.9-1.2-3.1v-39.3c0-1.3,0.4-2.3,1.2-3.1c0.8-0.8,1.8-1.2,3.1-1.2c1.3,0,2.4,0.4,3.2,1.2
			c0.8,0.8,1.2,1.8,1.2,3.1v39.3c0,1.3-0.4,2.3-1.2,3.1c-0.8,0.8-1.8,1.2-3.2,1.2C-1064.5-374.9-1065.6-375.3-1066.4-376.1z"/>
		<path d="M-995.5-378.8c0,1-0.4,1.9-1.2,2.6s-1.8,1.1-2.8,1.1c-0.7,0-1.4-0.2-2-0.6s-1.1-1-1.5-1.8l-4-9h-23.6l-4,9
			c-0.4,0.8-0.8,1.4-1.5,1.8c-0.6,0.4-1.3,0.6-2.1,0.6c-1,0-2-0.4-2.8-1.1s-1.3-1.6-1.3-2.6c0-0.6,0.1-1.2,0.4-1.7l18.5-39.7
			c0.4-0.9,1-1.6,1.8-2c0.8-0.5,1.7-0.7,2.6-0.7s1.8,0.2,2.6,0.7s1.4,1.1,1.8,2l18.5,39.7C-995.7-379.9-995.5-379.3-995.5-378.8z
			 M-1027.7-393.1h17.7l-8.8-19.9L-1027.7-393.1z"/>
		<path d="M-949.7-376.1c-0.8-0.8-1.2-1.9-1.2-3.1v-39.3c0-1.3,0.4-2.3,1.2-3.1c0.8-0.8,1.8-1.2,3.1-1.2s2.4,0.4,3.2,1.2
			c0.8,0.8,1.2,1.8,1.2,3.1v39.3c0,1.3-0.4,2.3-1.2,3.1c-0.8,0.8-1.8,1.2-3.2,1.2C-947.9-374.9-948.9-375.3-949.7-376.1z"/>
		<path d="M-912.9-377.7c-3.4-2-6-4.8-7.9-8.4c-1.8-3.7-2.7-7.9-2.7-12.8s0.9-9.2,2.7-12.8c1.8-3.6,4.4-6.4,7.9-8.4
			c3.4-2,7.4-2.9,11.9-2.9c2.9,0,5.7,0.4,8.3,1.3s4.9,2.1,6.9,3.8c0.6,0.4,1,0.9,1.2,1.4s0.3,1.1,0.3,1.8c0,1-0.3,1.8-0.8,2.5
			s-1.2,1-1.9,1c-0.9,0-1.8-0.3-2.7-0.9c-1.9-1.4-3.7-2.4-5.4-3s-3.5-0.8-5.5-0.8c-4.6,0-8.2,1.5-10.5,4.3
			c-2.4,2.9-3.6,7.2-3.6,12.8c0,5.7,1.2,9.9,3.6,12.8c2.4,2.9,5.9,4.3,10.5,4.3c1.9,0,3.7-0.3,5.3-0.9s3.5-1.6,5.5-2.9
			c0.4-0.3,0.9-0.5,1.3-0.7c0.4-0.2,0.9-0.3,1.4-0.3c0.8,0,1.4,0.3,1.9,1s0.8,1.5,0.8,2.5c0,0.7-0.1,1.3-0.3,1.8s-0.6,1-1.2,1.4
			c-2,1.7-4.3,2.9-6.9,3.8c-2.6,0.9-5.4,1.3-8.3,1.3C-905.5-374.7-909.5-375.7-912.9-377.7z"/>
		<path d="M-858.4-377.7c-3.4-2-6-4.8-7.8-8.4c-1.8-3.7-2.7-7.9-2.7-12.8s0.9-9.2,2.7-12.8c1.8-3.6,4.4-6.4,7.8-8.4
			c3.4-2,7.4-2.9,12-2.9s8.6,1,11.9,2.9c3.4,2,6,4.8,7.8,8.4s2.7,7.9,2.7,12.8s-0.9,9.2-2.7,12.8c-1.8,3.7-4.4,6.5-7.8,8.4
			c-3.4,2-7.3,2.9-11.9,2.9C-851-374.7-855-375.7-858.4-377.7z M-836.3-386.1c2.4-3,3.6-7.3,3.6-12.8c0-5.6-1.2-9.8-3.6-12.8
			c-2.4-3-5.8-4.4-10.1-4.4c-4.4,0-7.8,1.5-10.2,4.4c-2.4,3-3.6,7.2-3.6,12.8c0,5.6,1.2,9.9,3.6,12.8c2.4,3,5.8,4.5,10.2,4.5
			C-842.1-381.6-838.7-383.1-836.3-386.1z"/>
		<path d="M-766.6-421.7c0.7,0.8,1.1,1.8,1.1,3.1v39.3c0,1.3-0.4,2.3-1.1,3.1c-0.8,0.8-1.7,1.2-2.9,1.2c-1.4,0-2.5-0.5-3.3-1.5
			l-24.4-31.8v29c0,1.3-0.4,2.3-1.1,3.1c-0.7,0.8-1.7,1.2-2.9,1.2s-2.2-0.4-2.9-1.2c-0.7-0.8-1.1-1.9-1.1-3.1v-39.3
			c0-1.3,0.4-2.3,1.1-3.1c0.8-0.8,1.8-1.2,3-1.2c1.4,0,2.5,0.5,3.2,1.5l24.4,31.7v-28.9c0-1.3,0.4-2.3,1.1-3.1
			c0.7-0.8,1.7-1.2,2.9-1.2S-767.3-422.5-766.6-421.7z"/>
		<path d="M-738.7-376.1c-3.1-0.9-5.5-2.2-7.5-3.7c-1-0.8-1.5-1.8-1.5-3.2c0-0.9,0.3-1.8,0.8-2.4c0.6-0.7,1.2-1,2-1s1.7,0.3,2.7,0.9
			c1.9,1.4,3.9,2.4,6,3s4.4,0.9,7,0.9c3.3,0,5.8-0.6,7.5-1.7s2.6-2.8,2.6-5c0-1.7-0.8-3-2.4-3.9c-1.6-0.9-4.3-1.8-8.1-2.6
			c-3.9-0.8-7.1-1.8-9.6-2.9s-4.3-2.5-5.6-4.3c-1.2-1.7-1.9-3.9-1.9-6.6c0-2.8,0.8-5.2,2.3-7.4c1.6-2.2,3.7-3.9,6.5-5.1
			s5.9-1.8,9.4-1.8c6.4,0,11.6,1.7,15.6,5.1c0.6,0.5,1,1,1.2,1.4c0.2,0.5,0.4,1.1,0.4,1.8c0,0.9-0.3,1.8-0.8,2.4c-0.6,0.7-1.2,1-2,1
			c-0.4,0-0.9-0.1-1.2-0.2c-0.4-0.1-0.9-0.4-1.5-0.7c-1.8-1.3-3.6-2.3-5.3-3c-1.7-0.6-3.8-1-6.3-1c-3,0-5.4,0.6-7.2,1.8
			c-1.8,1.2-2.6,2.9-2.6,5.1c0,1.8,0.8,3.2,2.3,4.2c1.6,1,4.2,1.9,8,2.7c4,0.9,7.2,1.9,9.7,3s4.4,2.5,5.7,4.2s2,3.8,2,6.4
			c0,2.8-0.8,5.2-2.3,7.3c-1.5,2.1-3.7,3.8-6.5,5s-6,1.8-9.6,1.8C-732.4-374.7-735.6-375.2-738.7-376.1z"/>
	</g>
	<g>
		<circle class="st1" cx="177.5" cy="-143.8" r="67.5"/>
		<g>
			<g>
				<path class="st2" d="M177.5-178.6c11.3,0,12.7,0,17.2,0.2c4.1,0.2,6.4,0.9,7.9,1.5c2,0.8,3.4,1.7,4.9,3.2s2.4,2.9,3.2,4.9
					c0.6,1.5,1.3,3.7,1.5,7.9c0.2,4.5,0.2,5.8,0.2,17.2s0,12.7-0.2,17.2c-0.2,4.1-0.9,6.4-1.5,7.9c-0.8,2-1.7,3.4-3.2,4.9
					s-2.9,2.4-4.9,3.2c-1.5,0.6-3.7,1.3-7.9,1.5c-4.5,0.2-5.8,0.2-17.2,0.2c-11.3,0-12.7,0-17.2-0.2c-4.1-0.2-6.4-0.9-7.9-1.5
					c-2-0.8-3.4-1.7-4.9-3.2s-2.4-2.9-3.2-4.9c-0.6-1.5-1.3-3.7-1.5-7.9c-0.2-4.5-0.2-5.8-0.2-17.2s0-12.7,0.2-17.2
					c0.2-4.1,0.9-6.4,1.5-7.9c0.8-2,1.7-3.4,3.2-4.9s2.9-2.4,4.9-3.2c1.5-0.6,3.7-1.3,7.9-1.5C164.8-178.6,166.2-178.6,177.5-178.6
					 M177.5-186.3c-11.5,0-13,0-17.5,0.3c-4.5,0.2-7.6,0.9-10.3,2c-2.8,1.1-5.2,2.5-7.5,4.9c-2.4,2.4-3.8,4.7-4.9,7.5
					c-1.1,2.7-1.8,5.8-2,10.3s-0.3,6-0.3,17.5s0,13,0.3,17.5c0.2,4.5,0.9,7.6,2,10.3c1.1,2.8,2.5,5.2,4.9,7.5
					c2.4,2.4,4.7,3.8,7.5,4.9c2.7,1.1,5.8,1.8,10.3,2s6,0.3,17.5,0.3s13,0,17.5-0.3c4.5-0.2,7.6-0.9,10.3-2c2.8-1.1,5.2-2.5,7.5-4.9
					c2.4-2.4,3.8-4.7,4.9-7.5c1.1-2.7,1.8-5.8,2-10.3s0.3-6,0.3-17.5s0-13-0.3-17.5c-0.2-4.5-0.9-7.6-2-10.3
					c-1.1-2.8-2.5-5.2-4.9-7.5c-2.4-2.4-4.7-3.8-7.5-4.9c-2.7-1.1-5.8-1.8-10.3-2S189-186.3,177.5-186.3L177.5-186.3z"/>
				<path class="st2" d="M177.5-165.6c-12.1,0-21.8,9.8-21.8,21.8c0,12.1,9.8,21.8,21.8,21.8c12.1,0,21.8-9.8,21.8-21.8
					S189.6-165.6,177.5-165.6z M177.5-129.6c-7.8,0-14.2-6.3-14.2-14.2s6.3-14.2,14.2-14.2s14.2,6.3,14.2,14.2
					S185.3-129.6,177.5-129.6z"/>
				<circle class="st2" cx="200.2" cy="-166.4" r="5.1"/>
			</g>
		</g>
	</g>
	<g>
		<circle class="st1" cx="-1369.6" cy="-228.5" r="67.5"/>
		<g>
			<g id="logo_5_">
				<path id="bubble_5_" class="st3" d="M-1369.6-278.5c-28.7,0-51,21-51,49.5c0,14.9,6.1,27.7,16,36.6c0.8,0.7,1.3,1.8,1.4,2.9
					l0.3,9.1c0.1,2.9,3.1,4.8,5.7,3.6l10.1-4.5c0.9-0.4,1.8-0.4,2.7-0.2c4.7,1.3,9.6,2,14.8,2c28.7,0,51-21,51-49.5
					S-1340.9-278.5-1369.6-278.5z"/>
				<path id="bolt_5_" class="st4" d="M-1400.2-214.6l15-23.8c2.4-3.8,7.5-4.7,11.1-2l11.9,8.9c1.1,0.8,2.6,0.8,3.7,0l16.1-12.2
					c2.1-1.6,5,0.9,3.5,3.2l-15,23.8c-2.4,3.8-7.5,4.7-11.1,2l-11.9-8.9c-1.1-0.8-2.6-0.8-3.7,0l-16.1,12.2
					C-1398.9-209.7-1401.7-212.3-1400.2-214.6z"/>
			</g>
		</g>
	</g>
	<g>
		<circle class="st1" cx="-921.3" cy="-228.5" r="67.5"/>
		<g>
			<g id="WA_Logo_10_">
				<g>
					<path class="st3" d="M-888.8-260.2c-8.1-8.1-18.8-12.5-30.3-12.6c-23.6,0-42.8,19.2-42.8,42.8c0,7.5,2,14.9,5.7,21.4l-6.1,22.2
						l22.7-6c6.3,3.4,13.3,5.2,20.5,5.2l0,0l0,0c23.6,0,42.8-19.2,42.8-42.8C-876.3-241.3-880.7-252.1-888.8-260.2z M-919.1-194.3
						L-919.1-194.3c-6.4,0-12.7-1.7-18.1-5l-1.3-0.8l-13.5,3.5l3.6-13.1l-0.8-1.3c-3.6-5.7-5.4-12.2-5.4-18.9
						c0-19.6,16-35.6,35.6-35.6c9.5,0,18.4,3.7,25.2,10.4c6.7,6.7,10.4,15.7,10.4,25.2C-883.5-210.3-899.5-194.3-919.1-194.3z
						 M-899.6-220.9c-1.1-0.5-6.3-3.1-7.3-3.5s-1.7-0.5-2.4,0.5c-0.7,1.1-2.8,3.5-3.4,4.2c-0.6,0.7-1.2,0.8-2.3,0.3
						s-4.5-1.7-8.6-5.3c-3.2-2.8-5.3-6.3-6-7.4c-0.6-1.1-0.1-1.6,0.5-2.2c0.5-0.5,1.1-1.2,1.6-1.9c0.5-0.6,0.7-1.1,1.1-1.8
						c0.4-0.7,0.2-1.3-0.1-1.9c-0.3-0.5-2.4-5.8-3.3-7.9c-0.9-2.1-1.8-1.8-2.4-1.8c-0.6,0-1.3,0-2.1,0c-0.7,0-1.9,0.3-2.9,1.3
						c-1,1.1-3.7,3.7-3.7,8.9c0,5.3,3.8,10.4,4.4,11.1c0.5,0.7,7.5,11.5,18.3,16.2c2.6,1.1,4.5,1.8,6.1,2.3c2.6,0.8,4.9,0.7,6.7,0.4
						c2.1-0.3,6.3-2.6,7.2-5.1s0.9-4.6,0.6-5.1C-897.8-220.1-898.5-220.4-899.6-220.9z"/>
				</g>
			</g>
		</g>
	</g>
	<g>
		<circle class="st4" cx="-17.4" cy="-143.8" r="67.5"/>
		<g>
			<g>
				<path class="st2" d="M-31.1-104.9c33,0,51-27.3,51-51c0-0.8,0-1.5-0.1-2.3c3.5-2.5,6.5-5.7,8.9-9.3c-3.2,1.4-6.7,2.4-10.3,2.8
					c3.7-2.2,6.5-5.7,7.9-9.9c-3.5,2.1-7.3,3.5-11.4,4.4c-3.3-3.5-7.9-5.7-13.1-5.7c-9.9,0-17.9,8-17.9,17.9c0,1.4,0.2,2.8,0.5,4.1
					c-14.9-0.7-28.1-7.9-36.9-18.7c-1.5,2.6-2.4,5.7-2.4,9c0,6.2,3.2,11.7,8,14.9c-2.9-0.1-5.7-0.9-8.1-2.2c0,0.1,0,0.1,0,0.2
					c0,8.7,6.2,15.9,14.4,17.6c-1.5,0.4-3.1,0.6-4.7,0.6c-1.2,0-2.3-0.1-3.4-0.3c2.3,7.1,8.9,12.3,16.7,12.4
					c-6.1,4.8-13.9,7.7-22.3,7.7c-1.4,0-2.9-0.1-4.3-0.2C-50.6-107.8-41.2-104.9-31.1-104.9"/>
			</g>
		</g>
	</g>
	<g>
		<circle class="st4" cx="-921.3" cy="164.6" r="67.5"/>
		<g>
			<g>
				<path class="st2" d="M-901,207.2h-14.2c-12.8,0-22.4-6.6-22.4-22.4v-25.2h-11.6v-13.7c12.8-3.3,18.2-14.4,18.8-23.9h13.3v21.7
					h15.5v15.9h-15.5v22c0,6.6,3.3,8.9,8.6,8.9h7.5L-901,207.2L-901,207.2z"/>
			</g>
		</g>
	</g>
	<g>
		<circle class="st2" cx="382.8" cy="-142.7" r="66.6"/>
		<g>
			<g>
				<path class="st1" d="M382.9-211.4c-37.3,0-67.6,30.2-67.6,67.6c0,28.6,17.8,53.1,42.9,62.9c-0.6-5.3-1.1-13.6,0.2-19.4
					c1.2-5.3,7.9-33.6,7.9-33.6s-2-4.1-2-10c0-9.4,5.4-16.4,12.2-16.4c5.8,0,8.6,4.3,8.6,9.5c0,5.8-3.7,14.5-5.6,22.5
					c-1.6,6.7,3.4,12.2,10,12.2c12,0,21.2-12.7,21.2-30.9c0-16.2-11.6-27.5-28.2-27.5c-19.2,0-30.5,14.4-30.5,29.3
					c0,5.8,2.2,12,5,15.4c0.6,0.7,0.6,1.3,0.4,1.9c-0.5,2.1-1.7,6.7-1.9,7.7c-0.3,1.2-1,1.5-2.3,0.9c-8.5-3.9-13.7-16.2-13.7-26.2
					c0-21.3,15.5-40.9,44.6-40.9c23.4,0,41.6,16.7,41.6,39c0,23.3-14.7,42-35,42c-6.8,0-13.3-3.6-15.5-7.8c0,0-3.4,12.9-4.2,16.1
					c-1.5,5.9-5.6,13.2-8.4,17.7c6.3,1.9,13,3,20,3c37.3,0,67.6-30.2,67.6-67.6C450.4-181.1,420.2-211.4,382.9-211.4z"/>
			</g>
		</g>
	</g>
	<g>
		<circle class="st1" cx="-161.4" cy="67.5" r="67.5"/>
		<path class="st2" d="M-118.3,45.8c-1-3.9-4.1-6.9-8-8c-7-1.9-35.2-1.9-35.2-1.9s-28.1,0-35.2,1.9c-3.9,1-6.9,4.1-8,8
			c-1.9,7-1.9,21.7-1.9,21.7s0,14.6,1.9,21.7c1,3.9,4.1,6.9,8,8c7,1.9,35.2,1.9,35.2,1.9s28.1,0,35.2-1.9c3.9-1,6.9-4.1,8-8
			c1.9-7,1.9-21.7,1.9-21.7S-116.4,52.9-118.3,45.8z M-170.4,81V54l23.4,13.5L-170.4,81z"/>
	</g>
	<g>
		<circle class="st1" cx="-697.1" cy="-31.5" r="67.5"/>
		<g>
			<path class="st3" d="M-713.2-40.6c17.9-6.2,21-22.3,18.7-37.1c0-0.5,0.5-0.9,0.9-0.8c17.2,8.4,36.5,26.7,36.5,54.2
				c0,21.1-16.3,39.7-40.1,39.7c-21.1,1-38.9-15.3-39.9-36.4c-0.6-14,6.4-27.1,18.3-34.4c0.5-0.3,1.1,0,1.1,0.5
				c0.2,2.8,1,9.9,4.1,14.2h0.4V-40.6z"/>
		</g>
	</g>
	<g>
		<circle class="st1" cx="-407.2" cy="-143.8" r="67.5"/>
		<g>
			<g>
				<path class="st5" d="M-402-153c1.1-1.2,2-2.5,3.2-3.6c3.5-3.3,7.6-5,12.5-4.9c2.7,0,5.3,0.2,7.8,1c5.9,1.7,9.3,5.7,10.9,11.5
					c1.2,4.3,1.4,8.7,1.5,13.1c0,9.3,0,18.6,0,28c0,0.9-0.2,1.1-1.1,1.1c-4.8,0-9.6,0-14.4,0c-0.8,0-1-0.3-1-1.1
					c0-8.9,0-17.7,0-26.6c0-2.2-0.1-4.4-0.8-6.6c-1.1-4-4-6-8.2-5.8c-5.7,0.3-8.7,3.1-9.4,8.9c-0.2,1.4-0.3,2.8-0.3,4.2
					c0,8.6,0,17.3,0,25.9c0,0.9-0.2,1.1-1.1,1.1c-4.8,0-9.7,0-14.5,0c-0.8,0-1-0.2-1-1c0-17.1,0-34.2,0-51.3c0-0.8,0.3-1,1.1-1
					c4.6,0,9.2,0,13.8,0c0.8,0,1.1,0.3,1,1.1C-402-157.1-402-155-402-153z"/>
				<path class="st5" d="M-428.3-133.4c0,8.5,0,16.9,0,25.4c0,0.9-0.2,1.2-1.2,1.2c-4.8-0.1-9.6,0-14.4,0c-0.8,0-1-0.2-1-1
					c0-17.1,0-34.2,0-51.3c0-0.7,0.2-1,0.9-1c4.9,0,9.7,0,14.6,0c0.9,0,1.1,0.4,1.1,1.2C-428.3-150.5-428.3-142-428.3-133.4z"/>
				<path class="st5" d="M-427-177.1c0,5.3-4.3,9.6-9.6,9.6c-5.2,0-9.6-4.3-9.6-9.5c0-5.3,4.3-9.6,9.6-9.6
					C-431.3-186.7-427-182.3-427-177.1z"/>
			</g>
		</g>
	</g>
	<g>
		<circle class="st4" cx="-1593.8" cy="557.7" r="67.5"/>
		<g>
			<circle class="st3" cx="-1619.8" cy="557.8" r="21"/>
			<circle class="st3" cx="-1567.6" cy="557.8" r="21"/>
		</g>
	</g>
	<g>
		<circle class="st4" cx="578.1" cy="-150.9" r="67.5"/>
		<g>
			<g>
				<path class="st2" d="M601.4-166.8c0,1.9-0.1,3.7-0.2,5.6c0,0.3,0,0.6,0,0.9c0,0.7,0.4,1,1.1,0.9c0.2,0,0.5-0.1,0.7-0.2
					c0.7-0.2,1.3-0.5,2-0.7c1.1-0.4,2.2-0.8,3.4-1.1c0.8-0.2,1.6-0.3,2.4-0.1c1.8,0.4,2.8,2.2,2.1,4c-0.2,0.5-0.5,0.9-0.8,1.2
					c-0.5,0.5-1,1-1.6,1.4c-0.7,0.5-1.4,0.9-2.1,1.4c-1.1,0.8-2.3,1.5-3.4,2.3c-0.5,0.3-0.9,0.7-1.4,1c-0.2,0.2-0.5,0.4-0.7,0.6
					c-0.4,0.5-0.6,1-0.6,1.7c0,0.6,0.1,1.2,0.3,1.8c0.5,1.9,1.4,3.7,2.4,5.4c1.9,3.1,4.3,5.7,7.1,8c2.4,1.9,5,3.5,7.7,4.9
					c0.2,0.1,0.5,0.3,0.7,0.4s0.3,0.3,0.5,0.4c0.2,0.3,0.2,0.5,0.1,0.8c-0.1,0.2-0.3,0.4-0.5,0.6c-0.3,0.3-0.7,0.5-1,0.6
					c-1.6,0.8-3.2,1.5-4.9,1.9c-0.7,0.2-1.5,0.4-2.2,0.6c-0.5,0.1-1,0.4-1.5,0.6c-0.8,0.4-1.2,1.1-1.4,1.9c-0.1,0.5-0.1,1-0.2,1.4
					c-0.2,1.2-0.6,1.6-1.8,1.8c-0.4,0.1-0.8,0.1-1.3,0.1c-1.1,0.1-2.1,0.1-3.2,0.1c-2.4,0.1-4.7,0.5-7,1.2c-1,0.3-1.9,0.7-2.8,1.2
					c-0.9,0.5-1.9,1.1-2.8,1.6c-1.5,0.9-2.9,1.7-4.5,2.3c-1.8,0.7-3.6,1.1-5.5,1.3c-1.6,0.1-3.2,0.1-4.8-0.1c-2.4-0.3-4.7-1-6.8-2.1
					c-1-0.5-2-1.1-2.9-1.7c-0.7-0.4-1.4-0.9-2.1-1.3c-1.7-1-3.5-1.6-5.4-2.1c-1.7-0.4-3.5-0.6-5.3-0.7c-0.9,0-1.9-0.1-2.8-0.1
					c-0.5,0-1-0.1-1.6-0.2c-0.7-0.2-1.2-0.6-1.3-1.4c-0.1-0.4-0.1-0.8-0.2-1.2c0-0.1,0-0.2,0-0.3c-0.2-1.1-0.7-1.9-1.7-2.4
					c-0.6-0.3-1.3-0.5-2-0.7c-1.2-0.3-2.3-0.6-3.5-1c-1-0.4-2-0.8-2.9-1.3c-0.3-0.2-0.5-0.3-0.8-0.5c-0.2-0.1-0.3-0.3-0.5-0.4
					c-0.5-0.6-0.5-1.1,0.1-1.5c0.3-0.2,0.6-0.4,1-0.6c2.4-1.2,4.7-2.6,6.8-4.2c3-2.3,5.6-5.1,7.6-8.3c1.1-1.7,2-3.6,2.5-5.6
					c0.2-0.6,0.3-1.3,0.3-1.9c0-0.6-0.2-1.2-0.6-1.7c-0.3-0.3-0.5-0.5-0.9-0.8c-0.9-0.7-1.8-1.3-2.7-1.9c-1.2-0.8-2.3-1.5-3.5-2.3
					c-0.6-0.4-1.1-0.8-1.6-1.3c-0.4-0.3-0.7-0.7-1-1.2c-0.6-0.9-0.6-1.9-0.2-2.8c0.3-0.7,0.8-1.1,1.5-1.4c0.7-0.3,1.5-0.3,2.3-0.2
					c0.9,0.2,1.8,0.4,2.7,0.7s1.8,0.7,2.7,1c0.4,0.2,0.8,0.3,1.3,0.4c0.1,0,0.2,0,0.3,0c0.5,0,0.9-0.2,0.9-0.9c0-0.6,0-1.1-0.1-1.7
					c-0.2-3.1-0.3-6.1-0.2-9.2c0.1-2,0.3-3.9,0.7-5.8c0.6-2.7,1.7-5.1,3.4-7.3c3.1-4,7.1-6.6,11.9-8c2.6-0.7,5.3-1,8.1-0.9
					c2.9,0.1,5.7,0.6,8.4,1.7c2.6,1,4.9,2.4,6.9,4.2c2.5,2.4,4.5,5.1,5.6,8.5c0.5,1.5,0.8,3.1,1,4.6
					C601.4-171.7,601.4-169.3,601.4-166.8z"/>
			</g>
		</g>
	</g>
	<g>
		<circle class="st4" cx="-1593.8" cy="360.7" r="67.5"/>
		<g>
			<g>
				<path class="st2" d="M-1545.4,370.2c-0.3-1.5-0.5-3.1-1-4.6c-2-6-6-10.4-11.4-13.6c-7.1-4.2-14.7-5.4-22.8-4.1
					c-7.2,1.2-13.4,4.3-18.4,9.9c-6.7,7.5-7.6,18.1-2.2,26.5s13.6,12.2,23.2,13.2c4.6,0.5,9.1-0.2,13.5-1.4c0.4-0.1,0.9-0.1,1.3,0.1
					c2.2,1.1,4.3,2.2,6.5,3.4c0.8,0.4,1.6,0.9,2.6,1.4c-0.1-0.3-0.1-0.4-0.2-0.6c-0.8-2.4-1.5-4.9-2.3-7.3c-0.2-0.5-0.1-0.8,0.3-1.1
					c0.6-0.4,1.2-0.9,1.7-1.3c4-3.3,7-7.3,8.4-12.4c0.4-1.3,0.5-2.7,0.8-4c0-1.2,0-2.4,0-3.6
					C-1545.3,370.5-1545.4,370.4-1545.4,370.2z M-1583.9,368.4c-2.2,0-4-1.8-4-4s1.8-4,4-4s4,1.8,4,4
					C-1580,366.6-1581.7,368.4-1583.9,368.4z M-1564.6,368.4c-2.2,0-4-1.8-4-4s1.8-4,4-4s4,1.8,4,4S-1562.4,368.4-1564.6,368.4z"/>
				<path class="st2" d="M-1606,367.3c1.5-6.6,5.3-11.6,10.7-15.5c6.5-4.6,13.8-6.5,21.7-6.3c0.5,0,1,0,1.5,0c0-0.1,0-0.2,0-0.3
					c-0.2-0.7-0.3-1.3-0.5-2c-2.7-8.6-8.4-14.6-16.2-18.6c-9.6-4.9-19.7-5.6-30-2.5c-8.1,2.4-14.8,7-19.4,14.2
					c-3.5,5.5-4.9,11.4-3.9,17.9c1,6.2,3.9,11.5,8.4,15.8c1.6,1.6,3.4,2.9,5.1,4.4c-1.1,3.3-2.2,6.6-3.4,10.2
					c0.5-0.3,0.9-0.4,1.2-0.6c3.3-1.8,6.6-3.5,9.9-5.3c0.6-0.3,1.1-0.4,1.7-0.2c3.9,1.2,7.9,1.8,12,1.9c0.6,0,1.2,0,1.9,0
					c-0.1-0.5-0.2-0.8-0.3-1.1C-1606.7,375.5-1606.9,371.4-1606,367.3z M-1594.7,334.9c2.8,0,5,2.2,5,5s-2.2,5-5,5s-5-2.2-5-5
					C-1599.7,337.2-1597.5,334.9-1594.7,334.9z M-1619,344.9c-2.8,0-5-2.2-5-5s2.2-5,5-5s5,2.2,5,5
					C-1614.1,342.7-1616.3,344.9-1619,344.9z"/>
			</g>
		</g>
	</g>
	<g>
		<g>
			<circle class="st1" cx="-921.3" cy="360.7" r="67.5"/>
			<path class="st2" d="M-876.3,360.7c0-5.4-4.4-9.8-9.8-9.8c-2.7,0-5.1,1.1-6.8,2.8c-6.7-4.9-16-8-26.3-8.4l4.5-21.1l14.7,3.1
				c0.2,3.7,3.2,6.7,7,6.7c3.9,0,7-3.1,7-7s-3.1-7-7-7c-2.8,0-5.1,1.6-6.3,3.9l-16.4-3.5c-0.5-0.1-0.9,0-1.3,0.2
				c-0.4,0.3-0.7,0.7-0.8,1.1l-5,23.5c-10.5,0.3-19.9,3.4-26.7,8.3c-1.8-1.7-4.2-2.7-6.8-2.7c-5.4,0-9.8,4.4-9.8,9.8
				c0,4,2.4,7.4,5.8,9c-0.2,1-0.2,2-0.2,3c0,15.1,17.6,27.4,39.4,27.4s39.4-12.3,39.4-27.4c0-1-0.1-2-0.2-3
				C-878.7,368.1-876.3,364.7-876.3,360.7z M-943.8,367.7c0-3.9,3.2-7,7-7c3.9,0,7,3.2,7,7c0,3.9-3.2,7-7,7
				S-943.8,371.6-943.8,367.7z M-904.6,386.3c-4.8,4.8-14,5.2-16.7,5.2s-11.9-0.4-16.7-5.2c-0.7-0.7-0.7-1.9,0-2.6s1.9-0.7,2.6,0
				c3,3,9.5,4.1,14.1,4.1s11.1-1.1,14.1-4.1c0.7-0.7,1.9-0.7,2.6,0C-903.9,384.4-903.9,385.6-904.6,386.3z M-905.8,374.7
				c-3.9,0-7-3.2-7-7c0-3.9,3.2-7,7-7c3.9,0,7,3.2,7,7C-898.8,371.6-901.9,374.7-905.8,374.7z"/>
		</g>
	</g>
	<g>
		<circle class="st4" cx="-697.1" cy="360.7" r="67.5"/>
		<g>
			<g>
				<path class="st3" d="M-697.1,310.7c-27.6,0-50,22.4-50,50s22.4,50,50,50c27.5,0,50-22.4,50-50S-669.6,310.7-697.1,310.7z
					 M-664.1,333.7c6,7.3,9.5,16.5,9.7,26.6c-1.4-0.3-15.5-3.1-29.7-1.4c-0.3-0.7-0.6-1.5-0.9-2.2c-0.9-2.1-1.8-4.2-2.8-6.2
					C-672.2,344.1-665,334.9-664.1,333.7z M-697.1,318c10.8,0,20.8,4.1,28.3,10.7c-0.8,1.1-7.2,9.7-22.4,15.4
					c-7-12.9-14.8-23.4-15.9-25C-704,318.4-700.6,318-697.1,318z M-715.3,322.1c1.1,1.5,8.7,12.1,15.8,24.7
					c-20,5.3-37.6,5.2-39.5,5.2C-736.2,338.7-727.2,327.7-715.3,322.1z M-739.9,360.7c0-0.4,0-0.9,0-1.3c1.8,0.1,22.6,0.3,43.9-6.1
					c1.2,2.4,2.4,4.8,3.5,7.3c-0.5,0.2-1.1,0.3-1.7,0.5c-22,7.1-33.7,26.5-34.7,28.1C-735.7,381.7-739.9,371.7-739.9,360.7z
					 M-697.1,403.4c-9.9,0-19-3.4-26.2-9c0.8-1.6,9.4-18.3,33.5-26.7c0.1-0.1,0.2-0.1,0.3-0.1c6,15.6,8.5,28.6,9.1,32.4
					C-685.6,402.2-691.2,403.4-697.1,403.4z M-673.3,396.1c-0.4-2.6-2.7-15.1-8.3-30.4c13.4-2.1,25.1,1.4,26.6,1.8
					C-656.9,379.4-663.7,389.6-673.3,396.1z"/>
			</g>
		</g>
	</g>
	<g>
		<circle class="st6" cx="-921.3" cy="557.7" r="67.5"/>
		<g>
			<g>
				<g>
					<path class="st2" d="M-939.6,528.9c2.7,0,5.1,0.2,7.4,0.7c2.2,0.5,4.1,1.3,5.7,2.3c1.6,1.1,2.8,2.5,3.7,4.3s1.3,4,1.3,6.6
						c0,2.8-0.6,5.2-1.9,7.1c-1.3,1.9-3.2,3.5-5.8,4.7c3.5,1,6.1,2.8,7.8,5.3s2.6,5.5,2.6,9.1c0,2.9-0.5,5.3-1.6,7.4
						c-1.1,2.1-2.6,3.8-4.5,5.1s-4,2.3-6.4,2.9c-2.4,0.6-4.9,1-7.4,1h-27.4v-56.6h26.5V528.9z M-941.2,551.7c2.2,0,4-0.5,5.5-1.6
						c1.4-1,2.1-2.8,2.1-5.1c0-1.3-0.2-2.4-0.7-3.2s-1.1-1.5-1.9-2c-0.8-0.5-1.7-0.8-2.7-1s-2.1-0.3-3.2-0.3h-11.7v13.2
						L-941.2,551.7L-941.2,551.7z M-940.5,575.8c1.2,0,2.4-0.1,3.5-0.4c1.1-0.2,2.1-0.6,2.9-1.2c0.8-0.5,1.5-1.3,2-2.3
						c0.5-0.9,0.7-2.2,0.7-3.7c0-2.9-0.8-5-2.5-6.2c-1.6-1.2-3.8-1.9-6.5-1.9h-13.5v15.6h13.4V575.8z"/>
					<path class="st2" d="M-901.1,575.6c1.7,1.6,4.1,2.5,7.3,2.5c2.3,0,4.2-0.6,5.9-1.7c1.6-1.1,2.6-2.4,3-3.6h9.9
						c-1.6,4.9-4,8.5-7.3,10.6s-7.2,3.2-11.9,3.2c-3.2,0-6.1-0.5-8.7-1.6c-2.6-1-4.8-2.5-6.6-4.4s-3.2-4.2-4.2-6.8s-1.5-5.6-1.5-8.7
						c0-3.1,0.5-5.9,1.5-8.6c1-2.7,2.4-4.9,4.3-6.9c1.9-1.9,4.1-3.5,6.6-4.6c2.6-1.1,5.4-1.7,8.5-1.7c3.5,0,6.5,0.7,9.1,2
						s4.7,3.2,6.4,5.4c1.7,2.3,2.9,4.9,3.6,7.8c0.7,2.9,1,5.9,0.8,9.1H-904C-903.9,570.9-902.8,574-901.1,575.6z M-888.2,554.1
						c-1.3-1.5-3.6-2.3-6.4-2.3c-1.8,0-3.3,0.3-4.5,0.9c-1.2,0.6-2.1,1.4-2.8,2.3c-0.7,0.9-1.2,1.9-1.5,2.9s-0.5,1.9-0.5,2.7h18.3
						C-885.9,557.7-886.9,555.6-888.2,554.1z"/>
					<rect x="-906.2" y="532.7" class="st2" width="22.9" height="5.6"/>
				</g>
			</g>
		</g>
	</g>
	<g>
		<circle class="st1" cx="67.5" cy="67.5" r="67.5"/>
		<g>
			<g>
				<g>
					<path class="st2" d="M111.1,46.4c-0.4,8.9-6.6,21-18.6,36.4c-12.4,16.1-22.8,24.1-31.4,24.1c-5.3,0-9.8-4.9-13.5-14.7
						c-2.4-9-4.9-18-7.3-26.9c-2.7-9.8-5.6-14.7-8.8-14.7c-0.7,0-3.1,1.4-7.1,4.3l-4.3-5.5c4.5-3.9,8.9-7.9,13.3-11.8
						c6-5.2,10.5-7.9,13.5-8.2C54,28.6,58.4,33.5,60,43.8C61.8,55,63,62,63.7,64.7c2,9.3,4.3,13.9,6.7,13.9c1.9,0,4.8-3,8.6-9
						c3.8-6,5.8-10.6,6.1-13.7c0.5-5.2-1.5-7.8-6.1-7.8c-2.2,0-4.4,0.5-6.7,1.5c4.5-14.6,13-21.8,25.6-21.4
						C107.2,28.4,111.6,34.5,111.1,46.4z"/>
				</g>
			</g>
		</g>
	</g>
	<g>
		<circle class="st4" cx="-1145.5" cy="557.7" r="67.5"/>
		<g>
			<path class="st2" d="M-1200.3,557.6l-0.7,6.1l0.7,6.1c0,0.3,0.3,0.3,0.3,0.3c0.3,0,0.3-0.3,0.3-0.3l1-6.1l-1-6.1
				c0-0.3-0.3-0.3-0.3-0.3S-1200.3,557.3-1200.3,557.6 M-1196.2,553.9l-1,9.9l1,9.9c0,0.3,0.3,0.3,0.3,0.3c0.3,0,0.3-0.3,0.3-0.3
				l1.4-9.9l-1.4-9.9c0-0.3-0.3-0.3-0.3-0.3l0,0L-1196.2,553.9 M-1183.2,552.5l-0.7,11.3l0.7,12c0,0.3,0.3,0.7,0.7,0.7
				s0.7-0.3,0.7-0.7l1.4-12l-1-11.3c0-0.3-0.3-0.7-0.7-0.7C-1182.9,551.8-1183.2,552.2-1183.2,552.5 M-1191.7,551.8l-1,12l1,11.3
				c0,0.3,0.3,0.7,0.7,0.7c0,0,0.3-0.3,0.3-0.7l1-11.3l-1-12c0-0.3-0.3-0.7-0.7-0.7C-1191.4,551.5-1191.7,551.5-1191.7,551.8
				 M-1187.6,551.5l-1,12.3l1,11.6c0,0.3,0.3,0.7,0.7,0.7c0.3,0,0.7-0.3,0.7-0.7l1-11.6l-1-12.3c0-0.3-0.3-0.7-0.7-0.7
				C-1187.3,550.8-1187.3,551.2-1187.6,551.5 M-1178.8,545.3l-1,18.4l1,12c0,0.3,0.3,0.7,0.7,0.7c0.7,0,1-0.3,1-0.7l1-12l-1-18.4
				c0-0.3-0.3-0.7-0.7-0.7C-1178.4,544.7-1178.8,545-1178.8,545.3 M-1174.3,541.2l-0.7,22.5l0.7,12c0,0.7,0.3,1,1,1c0.3,0,1-0.3,1-1
				l1-12l-1-22.5c0-0.7-0.3-1-1-1S-1174.3,540.6-1174.3,541.2 M-1156.2,540.2l-0.7,23.6l0.7,11.3c0,0.7,0.7,1.4,1.4,1.4
				s1.4-0.7,1.4-1.4l0.7-11.3l-0.7-23.9c0-0.7-0.7-1.4-1.4-1.4C-1155.9,538.9-1156.2,539.2-1156.2,540.2 M-1169.9,539.2l-0.7,24.6
				l0.7,11.6c0,0.7,0.3,1,1,1s1-0.3,1-1l0.7-11.6l-0.7-24.6c0-0.7-0.3-1-1-1S-1169.9,538.9-1169.9,539.2 M-1161,539.2l-0.7,24.6
				l0.7,11.6c0,0.7,0.7,1.4,1.4,1.4c0.7,0,1.4-0.7,1.4-1.4l0.7-11.6l-0.7-24.6c0-0.7-0.7-1.4-1.4-1.4S-1161,538.5-1161,539.2
				 M-1165.4,538.5l-0.7,25.3l0.7,11.6c0,0.7,0.3,1,1,1s1-0.3,1-1l0.7-11.6l-0.7-25.3c0-0.7-0.7-1-1-1S-1165.4,537.8-1165.4,538.5
				 M-1151.8,535.4l-0.7,28.3l0.7,11.3c0,0.7,0.7,1.4,1.4,1.4s1.4-0.7,1.4-1.4l0.7-11.3l-0.7-28.3c0-0.7-0.7-1.4-1.4-1.4
				S-1151.8,534.8-1151.8,535.4 M-1147,533.1l-0.7,30.7l0.7,11.3c0,0.7,0.7,1.4,1.4,1.4c0.7,0,1.4-0.7,1.4-1.4l0.7-11.3l-0.7-30.7
				c0-0.7-0.7-1.4-1.4-1.4h-0.3C-1146.7,531.7-1147,532.4-1147,533.1 M-1141.5,530c-1,0.3-1.4,0.7-1.4,1.7v43.4
				c0,0.7,0.7,1.4,1.4,1.7h37.9c7.5,0,13.7-6.1,13.7-13.7c0-7.5-6.1-13.7-13.7-13.7c-1.7,0-3.8,0.3-5.1,1
				c-1-12.3-11.3-21.9-23.9-21.9c-0.7,0-1,0-1.7,0C-1136.7,528.6-1139.1,529.3-1141.5,530"/>
		</g>
	</g>
	<g>
		<circle class="st4" cx="-697.1" cy="557.7" r="67.5"/>
		<g>
			<g>
				<path class="st2" d="M-696.5,592.2c-2.9,0-5.7-0.1-8.5-0.5c-0.4-0.1-0.8,0-1.1,0.3c-5.6,3.9-11.2,7.9-17,11.6
					c-0.7,0.4-1.4,0.8-2.2,1.3c-0.3,0.1-0.5,0.2-0.8,0.3c-0.9,0.1-1.5-0.4-1.3-1.3c0.3-1.6,0.8-3.2,1.3-4.8c1.1-4,2.3-8,3.4-12
					c0.1-0.4,0.1-0.5-0.3-0.7c-5.5-2.8-10.3-6.4-14.2-11.1c-3.9-4.7-6.5-10-7.5-16c-1.1-6.9,0.1-13.4,3.5-19.6
					c3.3-6,8-10.7,13.7-14.3c6.1-3.9,12.7-6.4,19.8-7.7c5.3-1,10.6-1.2,16-0.7c10.1,0.9,19.4,4,27.6,10.1c5.4,4,9.8,9,12.5,15.2
					c4.3,10,3.4,19.7-2.3,29c-3.6,5.9-8.7,10.4-14.7,13.8c-5.7,3.3-11.9,5.4-18.4,6.5C-690.2,591.9-693.4,592.1-696.5,592.2z"/>
				<path class="st1" d="M-674.2,551.7c0.1-0.1,0.2-0.3,0.3-0.4c2.4-2.4,4.7-4.7,7.1-7.1c0.9-0.9,2-1,3-0.4c1.1,0.6,1.6,1.9,1.3,3
					c-0.1,0.4-0.4,0.8-0.7,1.1c-1.9,1.9-3.9,3.9-5.8,5.8c-0.3,0.3-0.3,0.4,0,0.7c2.2,2.8,4.3,5.7,6.5,8.6c0.9,1.2,0.8,2.8-0.3,3.8
					c-1.2,1.1-3.1,0.9-4.1-0.4c-1.9-2.5-3.8-5.1-5.8-7.6c0-0.1-0.1-0.1-0.1-0.2c-0.2-0.2-0.3-0.6-0.6-0.7c-0.3,0-0.9,1-0.9,1.3
					c0,1.9,0,3.8,0,5.7c0,1.3-1,2.4-2.3,2.6c-1.2,0.2-2.5-0.4-3-1.6c-0.2-0.4-0.3-0.8-0.3-1.2c0-6.3,0-12.6,0-18.8
					c0-1.6,1.2-2.8,2.8-2.8c1.5,0,2.8,1.2,2.8,2.8c0,1.8,0,3.6,0,5.4C-674.3,551.4-674.3,551.6-674.2,551.7
					C-674.3,551.7-674.3,551.7-674.2,551.7z"/>
				<path class="st1" d="M-726.4,556.9c0-2.6,0-5.2,0-7.9c0-0.4-0.1-0.6-0.5-0.6c-1.2,0-2.5,0-3.7,0c-1.6,0-2.8-1.1-2.8-2.7
					c0-1.5,1.2-2.7,2.8-2.8c4.7,0,9.3,0,14,0c1.5,0,2.6,1,2.8,2.4c0.1,1.3-0.7,2.6-2,2.9c-0.3,0.1-0.6,0.1-0.8,0.1
					c-1.2,0-2.5,0-3.7,0c-0.4,0-0.5,0.1-0.5,0.5c0,5.2,0,10.5,0,15.7c0,1.4-0.7,2.4-1.9,2.8c-1.8,0.6-3.6-0.7-3.6-2.6
					C-726.4,562.1-726.4,559.5-726.4,556.9z"/>
				<path class="st1" d="M-695.2,555.2c0-3.1,0-6.2,0-9.3c0-1.5,1-2.6,2.5-2.8c1.3-0.2,2.6,0.7,3,2.1c0.1,0.3,0.1,0.7,0.1,1
					c0,5.1,0,10.3,0,15.4c0,0.4,0.1,0.5,0.5,0.5c1.8,0,3.6,0,5.4,0c1.4,0,2.5,1.1,2.6,2.4c0.1,1.4-1,2.6-2.4,2.6c-3.1,0-6.2,0-9.3,0
					c-1.4,0-2.4-1.2-2.4-2.6C-695.2,561.4-695.2,558.3-695.2,555.2z"/>
				<path class="st1" d="M-697.1,562.9c-1.2-3-2.3-6.1-3.5-9.1c-1-2.7-2-5.4-3.1-8.1c-0.7-1.8-2.5-2.9-4.3-2.6
					c-1.5,0.3-2.6,1.3-3.1,2.7c-1.9,4.9-3.8,9.9-5.6,14.8c-0.4,1.2-1,2.3-1.2,3.6c-0.4,2,0.3,3,2.2,3.3c1.5,0.2,2.5-0.3,3-1.7
					c0.3-0.9,0.7-1.8,1-2.7c0.1-0.3,0.2-0.4,0.5-0.4c1.3,0,2.6,0,3.8,0c1.3,0,2.5,0,3.8,0c0.3,0,0.5,0.1,0.6,0.4
					c0.3,0.9,0.7,1.8,1,2.8c0.4,1.2,1.2,1.6,2.3,1.6c0.6,0,1.2-0.1,1.7-0.3c0.8-0.3,1.1-0.8,1.2-1.6
					C-696.5,564.7-696.7,563.8-697.1,562.9z M-708,557.8c-0.5,0-1.1,0-1.6,0c-0.4,0-0.4-0.1-0.3-0.4c0.7-2,1.4-4,2.1-6
					c0.2-0.4,0.3-0.9,0.5-1.5c0.9,2.7,1.8,5.2,2.8,7.8C-705.7,557.8-706.9,557.8-708,557.8z"/>
			</g>
		</g>
	</g>
	<g>
		<circle class="st4" cx="-697.1" cy="164.6" r="67.5"/>
		<g>
			<g id="FULL_COLOR_ICON_4_">
				<g id="TYPE_A_4_">
					<g>
						<path class="st2" d="M-651.3,158.1c0-20.6-20.6-37.3-46-37.3s-46,16.7-46,37.3c0,18.5,16.4,33.9,38.5,36.8
							c1.5,0.3,3.5,1,4.1,2.3c0.5,1.2,0.3,3,0.1,4.2c0,0-0.5,3.2-0.7,3.9c-0.2,1.2-0.9,4.5,4,2.5c4.9-2.1,26.5-15.6,36.1-26.7l0,0
							C-654.5,173.7-651.3,166.3-651.3,158.1"/>
						<g>
							<path class="st1" d="M-706.7,148.1h-3.2c-0.5,0-0.9,0.4-0.9,0.9v20c0,0.5,0.4,0.9,0.9,0.9h3.2c0.5,0,0.9-0.4,0.9-0.9v-20
								C-705.8,148.5-706.2,148.1-706.7,148.1"/>
							<path class="st1" d="M-684.5,148.1h-3.2c-0.5,0-0.9,0.4-0.9,0.9v11.9l-9.2-12.4c0,0,0-0.1-0.1-0.1l0,0c0,0,0,0-0.1-0.1l0,0
								l0,0l0,0l0,0l0,0l0,0l0,0c0,0,0,0-0.1,0l0,0c0,0,0,0-0.1,0l0,0c0,0,0,0-0.1,0l0,0l0,0l0,0l0,0h-3.2c-0.5,0-0.9,0.4-0.9,0.9
								v20c0,0.5,0.4,0.9,0.9,0.9h3.2c0.5,0,0.9-0.4,0.9-0.9v-11.9l9.2,12.4c0.1,0.1,0.1,0.2,0.2,0.2l0,0c0,0,0,0,0.1,0l0,0l0,0l0,0
								l0,0c0,0,0,0,0.1,0l0,0c0.1,0,0.1,0,0.2,0h3.2c0.5,0,0.9-0.4,0.9-0.9v-20C-683.6,148.5-684,148.1-684.5,148.1"/>
							<path class="st1" d="M-714.5,165h-8.8v-16c0-0.5-0.4-0.9-0.9-0.9h-3.2c-0.5,0-0.9,0.4-0.9,0.9v20l0,0c0,0.2,0.1,0.5,0.3,0.6
								l0,0l0,0c0.2,0.2,0.4,0.2,0.6,0.2l0,0h12.9c0.5,0,0.9-0.4,0.9-0.9v-3.2C-713.6,165.4-714,165-714.5,165"/>
							<path class="st1" d="M-666.7,153.2c0.5,0,0.9-0.4,0.9-0.9V149c0-0.5-0.4-0.9-0.9-0.9h-12.9l0,0c-0.2,0-0.5,0.1-0.6,0.3l0,0
								l0,0c-0.2,0.2-0.2,0.4-0.2,0.6l0,0v20l0,0c0,0.2,0.1,0.5,0.3,0.6l0,0l0,0c0.2,0.2,0.4,0.3,0.6,0.3l0,0h12.9
								c0.5,0,0.9-0.4,0.9-0.9v-3.2c0-0.5-0.4-0.9-0.9-0.9h-8.8v-3.4h8.8c0.5,0,0.9-0.4,0.9-0.9v-3.2c0-0.5-0.4-0.9-0.9-0.9h-8.8
								v-3.4L-666.7,153.2L-666.7,153.2z"/>
						</g>
					</g>
				</g>
			</g>
		</g>
	</g>
	<g>
		<path class="st1" d="M-144.8-143.3c0-37.3-30.2-67.5-67.5-67.5s-67.5,30.2-67.5,67.5c0,33.7,24.7,61.6,57,66.7v-47.2H-240v-19.5
			h17.1v-14.9c0-16.9,10.1-26.3,25.5-26.3c7.4,0,15.1,1.3,15.1,1.3v16.6h-8.5c-8.4,0-11,5.2-11,10.5v12.7h18.7l-3,19.5h-15.7v47.2
			C-169.5-81.7-144.8-109.7-144.8-143.3z"/>
		<path class="st2" d="M-186.1-123.8l3-19.5h-18.7V-156c0-5.3,2.6-10.5,11-10.5h8.5v-16.6c0,0-7.7-1.3-15.1-1.3
			c-15.4,0-25.5,9.3-25.5,26.3v14.9H-240v19.5h17.1v47.2c3.4,0.5,7,0.8,10.5,0.8s7.1-0.3,10.5-0.8v-47.2L-186.1-123.8L-186.1-123.8z
			"/>
	</g>
	<g>
		<g>
			<g>
				<path class="st1" d="M-1593.6,97.1c-37.3,0-67.5,30.2-67.5,67.5s30.2,67.5,67.5,67.5s67.5-30.2,67.5-67.5
					S-1556.3,97.1-1593.6,97.1z M-1562.6,194.4c-1.2,2-3.8,2.6-5.8,1.4c-15.9-9.7-35.8-11.9-59.3-6.5c-2.3,0.5-4.5-0.9-5-3.2
					s0.9-4.5,3.2-5c25.7-5.9,47.8-3.3,65.6,7.5C-1562,189.9-1561.4,192.5-1562.6,194.4z M-1554.4,176.1c-1.5,2.5-4.8,3.3-7.2,1.7
					c-18.1-11.2-45.8-14.4-67.3-7.9c-2.8,0.8-5.7-0.7-6.6-3.5c-0.8-2.8,0.7-5.7,3.5-6.6c24.5-7.4,55-3.8,75.8,9
					C-1553.6,170.4-1552.8,173.6-1554.4,176.1z M-1553.7,156.9c-21.8-12.9-57.6-14.1-78.4-7.8c-3.3,1-6.9-0.9-7.9-4.2
					s0.9-6.9,4.2-7.9c23.8-7.2,63.5-5.8,88.5,9c3,1.8,4,5.7,2.2,8.7C-1546.8,157.7-1550.7,158.7-1553.7,156.9z"/>
			</g>
		</g>
		<path class="st2" d="M-1562.6,194.4c-1.2,2-3.8,2.6-5.8,1.4c-15.9-9.7-35.8-11.9-59.3-6.5c-2.3,0.5-4.5-0.9-5-3.2s0.9-4.5,3.2-5
			c25.7-5.9,47.8-3.3,65.6,7.5C-1562,189.9-1561.4,192.5-1562.6,194.4z"/>
		<path class="st2" d="M-1554.4,176.1c-1.5,2.5-4.8,3.3-7.2,1.7c-18.1-11.2-45.8-14.4-67.3-7.9c-2.8,0.8-5.7-0.7-6.6-3.5
			c-0.8-2.8,0.7-5.7,3.5-6.6c24.5-7.4,55-3.8,75.8,9C-1553.6,170.4-1552.8,173.6-1554.4,176.1z"/>
		<path class="st2" d="M-1553.7,156.9c-21.8-12.9-57.6-14.1-78.4-7.8c-3.3,1-6.9-0.9-7.9-4.2s0.9-6.9,4.2-7.9
			c23.8-7.2,63.5-5.8,88.5,9c3,1.8,4,5.7,2.2,8.7C-1546.8,157.7-1550.7,158.7-1553.7,156.9z"/>
	</g>
	<g>
		<g>
			<circle class="st1" cx="-1369.6" cy="-31.5" r="67.5"/>
		</g>
		<path class="st2" d="M-1331.8-53.8c0-0.4,0-0.4-0.4-0.4c-1,0-2-0.1-2.9-0.3c-3.5-0.5-15-6.5-16.9-16.4c0-0.2-0.5-2.6-0.5-3.7
			c0-0.5,0-0.5-0.5-0.5c-0.1,0-0.2,0-0.3,0c-4.5,0-9,0-13.4,0c-0.9,0-0.8-0.1-0.8,0.8c0,19.4,0,38.9,0,58.3c0,0.7,0,1.4-0.1,2.2
			c-0.7,3.8-2.6,6.7-5.9,8.7c-2.8,1.7-5.9,2.2-9.1,1.6c-1-0.2-2-0.6-3-1c-0.1-0.1-0.2-0.1-0.2-0.2c-0.3-0.3-0.7-0.5-1-0.7
			c-4.2-2.9-6.1-6.9-5.5-11.9c0.6-5.1,3.5-8.5,8.3-10.3c1.4-0.5,2.9-0.7,4.5-0.7c1,0.1,2,0.2,2.9,0.4c0.3,0.1,0.5,0,0.5-0.4
			c0-0.1,0-0.2,0-0.4c0-3.5-0.1-11.1-0.1-11.1c0-1,0-2,0-3c0-0.3-0.1-0.3-0.4-0.4c-1.8-0.2-3.6-0.3-5.4-0.1
			c-2.5,0.2-4.9,0.7-7.3,1.6c-3.8,1.4-7.1,3.5-10,6.3c-2.5,2.4-4.4,5.2-5.8,8.3c-1.4,3-2.1,6.2-2.3,9.4c-0.1,1.4-0.1,2.9,0.1,4.3
			c0.2,2,0.6,3.9,1.2,5.8c1.7,5.4,4.9,9.9,9.3,13.4c0.5,0.4,0.9,0.8,1.4,1l0,0c0.2,0.2,0.5,0.4,0.7,0.6c0.7,0.5,1.5,1,2.3,1.4
			c5,2.5,10.2,3.5,15.8,2.8c7.2-0.9,13.2-4.1,17.9-9.5c4.4-5.2,6.6-11.2,6.6-18c0.1-9.7,0-19.4,0-29c0-0.2-0.1-0.6,0.1-0.7
			c0.2-0.1,0.4,0.2,0.6,0.3c3.6,2.4,7.5,4.1,11.7,5c2.4,0.6,4.9,0.9,7.4,0.9c0.8,0,0.9,0,0.9-0.8
			C-1331.6-43.5-1331.8-52.9-1331.8-53.8z"/>
	</g>
	<g>
		<circle class="st4" cx="-1369.6" cy="360.7" r="67.5"/>
		<g>
			<g>
				<g id="Layer_1-2_4_">
					<path class="st2" d="M-1393,319l-16.7,16.7v60h20v16.7l16.7-16.7h13.3l30-30V319H-1393z M-1336.3,362.3l-13.3,13.3h-13.3
						l-11.7,11.7v-11.7h-15v-50h53.3V362.3z"/>
					<rect x="-1353" y="337.3" class="st2" width="6.7" height="20"/>
					<rect x="-1371.3" y="337.3" class="st2" width="6.7" height="20"/>
				</g>
			</g>
		</g>
	</g>
	<g>
		<circle class="st4" cx="-1145.5" cy="360.7" r="67.5"/>
		<g>
			
				<linearGradient id="SVGID_1_" gradientUnits="userSpaceOnUse" x1="-1100" y1="-241.9" x2="-1100" y2="-241.9" gradientTransform="matrix(1 0 0 -1 0 136)">
				<stop  offset="0" style="stop-color:#00B7F0"/>
				<stop  offset="1" style="stop-color:#007CC1"/>
			</linearGradient>
			<path class="st7" d="M-1100,377.9L-1100,377.9L-1100,377.9z"/>
			<path class="st3" d="M-1100,377.9L-1100,377.9c0-0.1,0-0.2,0-0.3c0-0.2,0-0.5-0.1-0.7c0-0.3-0.1-0.6-0.1-0.9c0-0.1,0-0.2,0-0.3
				c-0.5-3.2-1.6-6.3-3.1-9c0.3-1.9,0.4-3.8,0.4-5.8c0-23.4-19-42.3-42.5-42.3c-1.5,0-3,0.1-4.5,0.2c-0.1,0-0.1-0.1-0.2-0.1l0,0
				c-0.1-0.1-0.2-0.1-0.4-0.2c-0.1-0.1-0.2-0.1-0.3-0.2c-0.3-0.2-0.7-0.4-1-0.5c-0.1-0.1-0.2-0.1-0.3-0.2c0,0-0.1,0-0.1-0.1l0,0
				c-0.3-0.1-0.6-0.3-0.9-0.4c-0.1,0-0.2-0.1-0.3-0.1c-0.2-0.1-0.4-0.2-0.6-0.3l0,0c-0.1-0.1-0.3-0.1-0.4-0.2
				c-0.1,0-0.1-0.1-0.2-0.1l0,0c-1.2-0.4-2.4-0.8-3.7-1.1h-0.1c-0.7-0.1-1.4-0.3-2.1-0.4c-0.1,0-0.1,0-0.2,0l0,0
				c-1.1-0.1-2.2-0.2-3.3-0.2c-14.8,0-26.8,12-26.8,26.7c0,0.8,0,1.5,0.1,2.3l0,0c0,0.1,0,0.1,0,0.2c0,0.2,0,0.4,0.1,0.6
				c0,0.3,0.1,0.6,0.1,0.9c0,0.1,0,0.1,0,0.2c0.5,3.3,1.6,6.3,3.1,9.1c-0.3,2-0.4,4-0.4,6.1c0,23.4,19,42.3,42.5,42.3
				c1.7,0,3.4-0.1,5.1-0.3l0,0c0.1,0,0.1,0.1,0.2,0.1s0.1,0.1,0.2,0.1s0.1,0.1,0.2,0.1c0.5,0.3,1.1,0.6,1.6,0.8c0,0,0,0,0.1,0l0,0
				c0.3,0.2,0.7,0.3,1,0.5c0.1,0,0.2,0.1,0.3,0.1c0.4,0.1,0.7,0.3,1.1,0.4c0.1,0,0.1,0,0.2,0.1l0,0c0.5,0.2,0.9,0.3,1.4,0.4h0.1
				c0.3,0.1,0.7,0.2,1,0.3c0.1,0,0.2,0,0.2,0.1c0.3,0.1,0.6,0.1,0.9,0.2c0.1,0,0.2,0,0.3,0.1c0.3,0.1,0.6,0.1,0.9,0.1
				c0.1,0,0.3,0,0.4,0.1c0.3,0,0.5,0.1,0.8,0.1h0.1l0,0c0.8,0.1,1.6,0.1,2.4,0.1c14.8,0,26.8-12,26.8-26.7
				C-1100,379.2-1100,378.6-1100,377.9z M-1131.2,378.8c-1.6,2.1-3.7,3.7-6.2,4.6c-3,1.1-6.1,1.6-9.3,1.5c-4.4,0.2-8.7-0.7-12.7-2.4
				c-1-0.5-1.9-1.2-2.6-2c-0.6-0.8-0.9-1.8-0.9-2.8c-0.1-1.1,0.4-2.1,1.1-2.8c0.8-0.7,1.8-1.1,2.9-1c1.2,0,2.3,0.3,3.4,0.9
				c1.3,0.6,2.3,1.1,3.1,1.5c0.9,0.4,1.7,0.6,2.6,0.8c1.1,0.2,2.2,0.4,3.4,0.3c2,0.1,4-0.4,5.7-1.5c1.3-1,2-2.5,1.9-4.2
				c0-1.1-0.4-2.2-1.2-3c-1-1.1-2.2-1.9-3.5-2.6c-1.6-0.8-3.7-1.8-6.6-3c-2.5-1-4.9-2.3-7.2-3.8c-1.7-1.1-3.1-2.6-4.2-4.4
				c-1-1.9-1.5-4-1.4-6.1c-0.1-2.7,0.8-5.3,2.6-7.4c1.8-2.1,4.1-3.6,6.7-4.5c2.8-1,5.8-1.5,8.8-1.5c2,0,3.9,0.1,5.9,0.4
				c1.4,0.2,2.8,0.6,4.1,1.1c1.2,0.4,2.3,1.1,3.2,2c0.6,0.8,1,1.7,1,2.7s-0.3,2.1-1,2.9c-0.7,0.7-1.6,1.1-2.6,1.1
				c-0.7,0-1.3-0.2-1.9-0.4c-1.5-0.7-3-1.2-4.6-1.7c-1.4-0.4-2.9-0.6-4.4-0.6c-1.9-0.1-3.9,0.4-5.6,1.4c-1.4,0.9-2.3,2.5-2.2,4.1
				c0,1.1,0.4,2.1,1.2,2.9c0.9,0.9,1.9,1.7,3.1,2.2c1.3,0.6,3.2,1.5,5.8,2.6c0.3,0.1,0.6,0.2,0.8,0.3c2.5,1,4.9,2.2,7.2,3.7
				c1.8,1.2,3.3,2.7,4.4,4.5c1.1,1.9,1.7,4.1,1.6,6.3C-1128.9,373.9-1129.7,376.6-1131.2,378.8z"/>
		</g>
	</g>
	<g>
		<circle class="st1" cx="-1369.6" cy="557.7" r="67.5"/>
		<path class="st2" d="M-1336.8,530.3c-0.3-0.8-0.6-1-1-1.1c-1.1-0.4-2.8,0.2-2.8,0.2s-63.1,22.7-66.7,25.2c-0.8,0.5-1,0.9-1.2,1.2
			c-0.6,1.8,1.3,2.6,1.3,2.6l16.3,5.3c0,0,0.6,0.1,0.8,0c3.7-2.3,37.2-23.5,39.1-24.2c0.3-0.1,0.5,0,0.5,0.2
			c-0.8,2.7-29.9,28.6-29.9,28.6s-0.1,0.1-0.2,0.3l0,0l-1.5,16.1c0,0-0.6,4.9,4.3,0c3.5-3.5,6.9-6.4,8.5-7.8
			c5.6,3.9,11.6,8.1,14.2,10.4c1.3,1.1,2.4,1.3,3.3,1.3c2.5-0.1,3.2-2.8,3.2-2.8s11.5-46.3,11.9-52.5c0-0.6,0.1-1,0.1-1.4
			C-1336.6,531.1-1336.7,530.5-1336.8,530.3z"/>
	</g>
</g>
</svg>
