<?xml version="1.0" encoding="utf-8"?>
<!-- Generator: Adobe Illustrator 27.2.0, SVG Export Plug-In . SVG Version: 6.00 Build 0)  -->
<svg version="1.1" id="Layer_1" xmlns="http://www.w3.org/2000/svg" xmlns:xlink="http://www.w3.org/1999/xlink" x="0px" y="0px"
	 viewBox="0 0 144 48" style="enable-background:new 0 0 144 48;" xml:space="preserve">
<style type="text/css">
	.st0{fill:#F8DA6B;}
	.st1{fill:#DDDDDD;}
	.st2{opacity:0.45;fill:#F8DA6B;enable-background:new    ;}
</style>
<g>
	<polygon class="st0" points="24,34.5 12.7,41.1 15.5,27.9 5.2,18.5 18.3,17.6 24,5.3 29.7,17.6 42.8,18.5 32.5,27.9 35.3,41.1 	"/>
	<path class="st0" d="M24,6.4l5.1,11l0.2,0.5h0.6l11.7,0.8l-9.3,8.4l-0.4,0.4l0.1,0.6L34.5,40l-10-5.9L24,33.8l-0.5,0.3l-10,5.9
		L16,28.2l0.1-0.6l-0.4-0.4l-9.3-8.4L18.1,18h0.6l0.2-0.5L24,6.4 M24,4l-6,13L4,18l11,10l-3,14l12-7l12,7l-3-14l11-10l-14-1L24,4
		L24,4z"/>
</g>
<path class="st1" d="M72,4l-6,13l-14,1l11,10l-3,14l12-7l12,7l-3-14l11-10l-14-1L72,4z"/>
<path class="st2" d="M120,4l-6,13l-14,1l11,10l-3,14l12-7l12,7l-3-14l11-10l-14-1L120,4z"/>
</svg>
