<?xml version="1.0" encoding="utf-8"?>
<!-- Generator: Adobe Illustrator 27.2.0, SVG Export Plug-In . SVG Version: 6.00 Build 0)  -->
<svg version="1.1" id="Layer_1" xmlns="http://www.w3.org/2000/svg" xmlns:xlink="http://www.w3.org/1999/xlink" x="0px" y="0px"
	 viewBox="0 0 97.3 124.1" style="enable-background:new 0 0 97.3 124.1;" xml:space="preserve">
<style type="text/css">
	.st0{fill:#E51E26;}
</style>
<g>
	<path class="st0" d="M48.6,124.1c-11.2,0-22.3,0-33.5,0c-3,0-4-0.8-4.2-3.8c-0.8-9.5-1.6-19-2.3-28.6C7.7,81.3,6.9,70.8,6,60.3
		c-0.8-9.4-1.5-18.8-2.2-28.2c-0.1-0.9-0.3-1.4-1.1-1.9c-1.7-1-2.6-2.6-2.6-4.6C0,22.8,0,20,0,17.2c0.1-3.3,2.6-5.6,6-5.6
		c8.4,0,16.8,0,25.2,0c2,0,2,0,2-1.9c0-0.8,0-1.5,0-2.3C33.2,2.8,36,0,40.6,0C46,0,51.4,0,56.8,0c0.4,0,0.8,0,1.2,0.1
		c3.2,0.3,5.8,2.8,6.1,6.1c0.1,1.4,0.1,2.8,0.1,4.2c0,1,0.2,1.4,1.3,1.3c8.4-0.1,16.9,0,25.3,0c0.7,0,1.4,0,2,0.2
		c2.7,0.7,4.5,2.8,4.5,5.6c0,2.6,0,5.2,0,7.8c0,2.3-0.9,4.1-3,5.2c-0.5,0.3-0.7,0.7-0.8,1.2c-0.7,9.3-1.5,18.7-2.2,28
		c-0.9,11.4-1.9,22.7-2.8,34.1c-0.7,9-1.5,18-2.2,27c-0.2,2.4-1.3,3.4-3.6,3.4c-10.6,0-21.1,0-31.7,0
		C50.3,124.1,49.4,124.1,48.6,124.1C48.6,124.1,48.6,124.1,48.6,124.1z M48.7,31.1c-12.5,0-25,0-37.4,0c-1,0-1.3,0.3-1.2,1.3
		c0.8,9.1,1.5,18.2,2.2,27.3c0.9,11.5,1.9,23,2.8,34.6c0.6,7.3,1.1,14.6,1.8,21.9c0.2,2-0.2,1.7,1.8,1.7c19.9,0,39.8,0,59.6,0
		c2.1,0,2.1,0,2.2-2.1c0.9-11.4,1.8-22.9,2.7-34.3c1.3-16.3,2.6-32.6,4-48.9c0.1-1.1-0.2-1.4-1.3-1.4C73.6,31.2,61.1,31.1,48.7,31.1
		z M48.6,24.9C48.6,24.9,48.6,24.9,48.6,24.9c5.8,0,11.5,0,17.3,0c8,0,15.9,0,23.9,0c0.9,0,1.1-0.3,1.1-1.1c-0.1-1.4,0-2.8,0-4.2
		c0-2,0.2-1.7-1.6-1.7c-17.3,0-34.6,0-51.9,0c-9.8,0-19.5,0-29.3,0c-1.1,0-1.4,0.3-1.3,1.3c0.1,1.4,0,2.7,0,4.1
		c0,1.8-0.2,1.6,1.5,1.6C21.6,24.9,35.1,24.9,48.6,24.9z M48.7,11.7c2.4,0,4.8,0,7.2,0c2.3,0,2.3,0,2.3-2.3c0-2.6-1.3-3.8-3.9-3.8
		c-3.4,0-6.7,0-10.1,0c-4.3,0-5.1,0.8-5.1,5.1c0,0.8,0.2,1.1,1.1,1.1C43,11.6,45.9,11.7,48.7,11.7z"/>
	<path class="st0" d="M33.3,109.1c0,0.7,0.1,1.4-0.2,2.1c-0.5,1.3-1.9,2.1-3.3,1.9c-1.5-0.2-2.6-1.3-2.8-3c-0.2-2.1-0.3-4.2-0.5-6.3
		c-1-12.7-2.1-25.3-3.1-38c-0.7-8.8-1.4-17.7-2.1-26.5c-0.1-1.7,1.1-3.2,2.7-3.4c1.8-0.2,3.3,0.9,3.5,2.7c0.4,4.5,0.8,9,1.1,13.5
		c0.9,11.6,1.9,23.1,2.8,34.7C32.2,94.2,32.8,101.6,33.3,109.1z"/>
	<path class="st0" d="M64,109c0.9-10.6,1.7-21.3,2.6-31.9c0.8-9.3,1.5-18.6,2.2-27.9c0.3-3.5,0.5-6.9,0.9-10.4
		c0.2-2.1,1.8-3.3,3.7-3c1.6,0.3,2.7,1.7,2.5,3.4c-1,12-2,24.1-2.9,36.1c-0.8,10.2-1.6,20.5-2.5,30.7c-0.1,1.2-0.2,2.5-0.3,3.7
		c-0.2,2.1-1.6,3.5-3.4,3.3c-1.8-0.2-2.9-1.6-2.8-3.8C64,109.3,64,109.1,64,109C64,109,64,109,64,109z"/>
	<path class="st0" d="M51.8,74.5c0,11.6,0,23.2,0,34.8c0,0.6,0,1.2-0.2,1.8c-0.5,1.4-1.9,2.2-3.3,2c-1.4-0.2-2.6-1.3-2.7-2.8
		c0-0.3,0-0.6,0-0.8c0-23.4,0-46.7,0-70.1c0-0.4,0-0.9,0.1-1.3c0.4-1.5,1.7-2.4,3.3-2.3c1.5,0.1,2.7,1.3,2.8,2.8c0,0.4,0,0.8,0,1.2
		C51.8,51.4,51.8,63,51.8,74.5z"/>
</g>
</svg>
