<?xml version="1.0" encoding="utf-8"?>
<!-- Generator: Adobe Illustrator 27.2.0, SVG Export Plug-In . SVG Version: 6.00 Build 0)  -->
<svg version="1.1" id="Layer_1" xmlns="http://www.w3.org/2000/svg" xmlns:xlink="http://www.w3.org/1999/xlink" x="0px" y="0px"
	 viewBox="0 0 269.6 269.6" style="enable-background:new 0 0 269.6 269.6;" xml:space="preserve">
<style type="text/css">
	.st0{fill:#FFFFFF;}
</style>
<g>
	<path class="st0" d="M145.7,157.4c22.5-5.1,39.3-25.2,39.3-49.2c0-27.9-22.6-50.4-50.4-50.4s-50.4,22.6-50.4,50.4
		c0,24,16.8,44.1,39.3,49.2c-35.3,4.6-62.8,30.3-64.9,62h-0.1v21.2c21.5,15.5,47.8,24.7,76.4,24.7c28.4,0,54.6-9.1,76.1-24.5v-21.5
		h-0.1C208.7,187.7,181.2,161.9,145.7,157.4z"/>
	<path class="st0" d="M134.8,15.4c31.9,0,61.9,12.4,84.4,34.9s34.9,52.5,34.9,84.4s-12.4,61.9-34.9,84.4s-52.5,34.9-84.4,34.9
		s-61.9-12.4-84.4-34.9s-34.9-52.5-34.9-84.4s12.4-61.9,34.9-84.4S102.9,15.4,134.8,15.4 M134.8,4.3C62.7,4.3,4.3,62.7,4.3,134.8
		s58.4,130.5,130.5,130.5s130.5-58.4,130.5-130.5S206.8,4.3,134.8,4.3L134.8,4.3z"/>
</g>
</svg>
